move_right_leg_forward coordinate motion generated from LLM joint_angles
version=1
nRows=30
nColumns=36
inDegrees=yes
endheader
time	pelvis_tilt	pelvis_list	pelvis_rotation	pelvis_tx	pelvis_ty	pelvis_tz	hip_flexion_r	hip_adduction_r	hip_rotation_r	knee_angle_r	knee_angle_r_beta	ankle_angle_r	subtalar_angle_r	mtp_angle_r	hip_flexion_l	hip_adduction_l	hip_rotation_l	knee_angle_l	knee_angle_l_beta	ankle_angle_l	subtalar_angle_l	mtp_angle_l	lumbar_extension	lumbar_bending	lumbar_rotation	arm_flex_r	arm_add_r	arm_rot_r	elbow_flex_r	pro_sup_r	arm_flex_l	arm_add_l	arm_rot_l	elbow_flex_l	pro_sup_l
0.753333	3.498317	-3.498317	0.000000	0.000000	0.000000	0.000000	31.484850	-6.996633	0.000000	6.996633	0.000000	-6.996633	0.000000	0.000000	0.000000	0.000000	0.000000	0.000000	0.000000	0.000000	0.000000	0.000000	0.000000	0.000000	0.000000	0.000000	0.000000	0.000000	0.000000	0.000000	0.000000	0.000000	0.000000	0.000000	0.000000
0.760000	3.422736	-3.422736	0.000000	0.000000	0.000000	0.000000	30.804620	-6.845471	0.000000	6.845471	0.000000	-6.845471	0.000000	0.000000	0.000000	0.000000	0.000000	0.000000	0.000000	0.000000	0.000000	0.000000	0.000000	0.000000	0.000000	0.000000	0.000000	0.000000	0.000000	0.000000	0.000000	0.000000	0.000000	0.000000	0.000000
0.766667	3.345653	-3.345653	0.000000	0.000000	0.000000	0.000000	30.110877	-6.691306	0.000000	6.691306	0.000000	-6.691306	0.000000	0.000000	0.000000	0.000000	0.000000	0.000000	0.000000	0.000000	0.000000	0.000000	0.000000	0.000000	0.000000	0.000000	0.000000	0.000000	0.000000	0.000000	0.000000	0.000000	0.000000	0.000000	0.000000
0.773333	3.267103	-3.267103	0.000000	0.000000	0.000000	0.000000	29.403927	-6.534206	0.000000	6.534206	0.000000	-6.534206	0.000000	0.000000	0.000000	0.000000	0.000000	0.000000	0.000000	0.000000	0.000000	0.000000	0.000000	0.000000	0.000000	0.000000	0.000000	0.000000	0.000000	0.000000	0.000000	0.000000	0.000000	0.000000	0.000000
0.780000	3.187120	-3.187120	0.000000	0.000000	0.000000	0.000000	28.684080	-6.374240	0.000000	6.374240	0.000000	-6.374240	0.000000	0.000000	0.000000	0.000000	0.000000	0.000000	0.000000	0.000000	0.000000	0.000000	0.000000	0.000000	0.000000	0.000000	0.000000	0.000000	0.000000	0.000000	0.000000	0.000000	0.000000	0.000000	0.000000
0.786667	3.105739	-3.105739	0.000000	0.000000	0.000000	0.000000	27.951650	-6.211478	0.000000	6.211478	0.000000	-6.211478	0.000000	0.000000	0.000000	0.000000	0.000000	0.000000	0.000000	0.000000	0.000000	0.000000	0.000000	0.000000	0.000000	0.000000	0.000000	0.000000	0.000000	0.000000	0.000000	0.000000	0.000000	0.000000	0.000000
0.793333	3.022996	-3.022996	0.000000	0.000000	0.000000	0.000000	27.206960	-6.045991	0.000000	6.045991	0.000000	-6.045991	0.000000	0.000000	0.000000	0.000000	0.000000	0.000000	0.000000	0.000000	0.000000	0.000000	0.000000	0.000000	0.000000	0.000000	0.000000	0.000000	0.000000	0.000000	0.000000	0.000000	0.000000	0.000000	0.000000
0.800000	2.938926	-2.938926	0.000000	0.000000	0.000000	0.000000	26.450336	-5.877853	0.000000	5.877853	0.000000	-5.877853	0.000000	0.000000	0.000000	0.000000	0.000000	0.000000	0.000000	0.000000	0.000000	0.000000	0.000000	0.000000	0.000000	0.000000	0.000000	0.000000	0.000000	0.000000	0.000000	0.000000	0.000000	0.000000	0.000000
0.806667	2.853568	-2.853568	0.000000	0.000000	0.000000	0.000000	25.682111	-5.707136	0.000000	5.707136	0.000000	-5.707136	0.000000	0.000000	0.000000	0.000000	0.000000	0.000000	0.000000	0.000000	0.000000	0.000000	0.000000	0.000000	0.000000	0.000000	0.000000	0.000000	0.000000	0.000000	0.000000	0.000000	0.000000	0.000000	0.000000
0.813333	2.766958	-2.766958	0.000000	0.000000	0.000000	0.000000	24.902620	-5.533915	0.000000	5.533915	0.000000	-5.533915	0.000000	0.000000	0.000000	0.000000	0.000000	0.000000	0.000000	0.000000	0.000000	0.000000	0.000000	0.000000	0.000000	0.000000	0.000000	0.000000	0.000000	0.000000	0.000000	0.000000	0.000000	0.000000	0.000000
0.820000	2.679134	-2.679134	0.000000	0.000000	0.000000	0.000000	24.112206	-5.358268	0.000000	5.358268	0.000000	-5.358268	0.000000	0.000000	0.000000	0.000000	0.000000	0.000000	0.000000	0.000000	0.000000	0.000000	0.000000	0.000000	0.000000	0.000000	0.000000	0.000000	0.000000	0.000000	0.000000	0.000000	0.000000	0.000000	0.000000
0.826667	2.590135	-2.590135	0.000000	0.000000	0.000000	0.000000	23.311215	-5.180270	0.000000	5.180270	0.000000	-5.180270	0.000000	0.000000	0.000000	0.000000	0.000000	0.000000	0.000000	0.000000	0.000000	0.000000	0.000000	0.000000	0.000000	0.000000	0.000000	0.000000	0.000000	0.000000	0.000000	0.000000	0.000000	0.000000	0.000000
0.833333	2.500000	-2.500000	0.000000	0.000000	0.000000	0.000000	22.500000	-5.000000	0.000000	5.000000	0.000000	-5.000000	0.000000	0.000000	0.000000	0.000000	0.000000	0.000000	0.000000	0.000000	0.000000	0.000000	0.000000	0.000000	0.000000	0.000000	0.000000	0.000000	0.000000	0.000000	0.000000	0.000000	0.000000	0.000000	0.000000
0.840000	2.408768	-2.408768	0.000000	0.000000	0.000000	0.000000	21.678915	-4.817537	0.000000	4.817537	0.000000	-4.817537	0.000000	0.000000	0.000000	0.000000	0.000000	0.000000	0.000000	0.000000	0.000000	0.000000	0.000000	0.000000	0.000000	0.000000	0.000000	0.000000	0.000000	0.000000	0.000000	0.000000	0.000000	0.000000	0.000000
0.846667	2.316480	-2.316480	0.000000	0.000000	0.000000	0.000000	20.848322	-4.632960	0.000000	4.632960	0.000000	-4.632960	0.000000	0.000000	0.000000	0.000000	0.000000	0.000000	0.000000	0.000000	0.000000	0.000000	0.000000	0.000000	0.000000	0.000000	0.000000	0.000000	0.000000	0.000000	0.000000	0.000000	0.000000	0.000000	0.000000
0.853333	2.223176	-2.223176	0.000000	0.000000	0.000000	0.000000	20.008583	-4.446352	0.000000	4.446352	0.000000	-4.446352	0.000000	0.000000	0.000000	0.000000	0.000000	0.000000	0.000000	0.000000	0.000000	0.000000	0.000000	0.000000	0.000000	0.000000	0.000000	0.000000	0.000000	0.000000	0.000000	0.000000	0.000000	0.000000	0.000000
0.860000	2.128896	-2.128896	0.000000	0.000000	0.000000	0.000000	19.160068	-4.257793	0.000000	4.257793	0.000000	-4.257793	0.000000	0.000000	0.000000	0.000000	0.000000	0.000000	0.000000	0.000000	0.000000	0.000000	0.000000	0.000000	0.000000	0.000000	0.000000	0.000000	0.000000	0.000000	0.000000	0.000000	0.000000	0.000000	0.000000
0.866667	2.033683	-2.033683	0.000000	0.000000	0.000000	0.000000	18.303149	-4.067366	0.000000	4.067366	0.000000	-4.067366	0.000000	0.000000	0.000000	0.000000	0.000000	0.000000	0.000000	0.000000	0.000000	0.000000	0.000000	0.000000	0.000000	0.000000	0.000000	0.000000	0.000000	0.000000	0.000000	0.000000	0.000000	0.000000	0.000000
0.873333	1.937578	-1.937578	0.000000	0.000000	0.000000	0.000000	17.438201	-3.875156	0.000000	3.875156	0.000000	-3.875156	0.000000	0.000000	0.000000	0.000000	0.000000	0.000000	0.000000	0.000000	0.000000	0.000000	0.000000	0.000000	0.000000	0.000000	0.000000	0.000000	0.000000	0.000000	0.000000	0.000000	0.000000	0.000000	0.000000
0.880000	1.840623	-1.840623	0.000000	0.000000	0.000000	0.000000	16.565605	-3.681246	0.000000	3.681246	0.000000	-3.681246	0.000000	0.000000	0.000000	0.000000	0.000000	0.000000	0.000000	0.000000	0.000000	0.000000	0.000000	0.000000	0.000000	0.000000	0.000000	0.000000	0.000000	0.000000	0.000000	0.000000	0.000000	0.000000	0.000000
0.886667	1.742860	-1.742860	0.000000	0.000000	0.000000	0.000000	15.685742	-3.485720	0.000000	3.485720	0.000000	-3.485720	0.000000	0.000000	0.000000	0.000000	0.000000	0.000000	0.000000	0.000000	0.000000	0.000000	0.000000	0.000000	0.000000	0.000000	0.000000	0.000000	0.000000	0.000000	0.000000	0.000000	0.000000	0.000000	0.000000
0.893333	1.644333	-1.644333	0.000000	0.000000	0.000000	0.000000	14.798999	-3.288666	0.000000	3.288666	0.000000	-3.288666	0.000000	0.000000	0.000000	0.000000	0.000000	0.000000	0.000000	0.000000	0.000000	0.000000	0.000000	0.000000	0.000000	0.000000	0.000000	0.000000	0.000000	0.000000	0.000000	0.000000	0.000000	0.000000	0.000000
0.900000	1.545085	-1.545085	0.000000	0.000000	0.000000	0.000000	13.905765	-3.090170	0.000000	3.090170	0.000000	-3.090170	0.000000	0.000000	0.000000	0.000000	0.000000	0.000000	0.000000	0.000000	0.000000	0.000000	0.000000	0.000000	0.000000	0.000000	0.000000	0.000000	0.000000	0.000000	0.000000	0.000000	0.000000	0.000000	0.000000
0.906667	1.445159	-1.445159	0.000000	0.000000	0.000000	0.000000	13.006431	-2.890318	0.000000	2.890318	0.000000	-2.890318	0.000000	0.000000	0.000000	0.000000	0.000000	0.000000	0.000000	0.000000	0.000000	0.000000	0.000000	0.000000	0.000000	0.000000	0.000000	0.000000	0.000000	0.000000	0.000000	0.000000	0.000000	0.000000	0.000000
0.913333	1.344599	-1.344599	0.000000	0.000000	0.000000	0.000000	12.101392	-2.689198	0.000000	2.689198	0.000000	-2.689198	0.000000	0.000000	0.000000	0.000000	0.000000	0.000000	0.000000	0.000000	0.000000	0.000000	0.000000	0.000000	0.000000	0.000000	0.000000	0.000000	0.000000	0.000000	0.000000	0.000000	0.000000	0.000000	0.000000
0.920000	1.243449	-1.243449	0.000000	0.000000	0.000000	0.000000	11.191045	-2.486899	0.000000	2.486899	0.000000	-2.486899	0.000000	0.000000	0.000000	0.000000	0.000000	0.000000	0.000000	0.000000	0.000000	0.000000	0.000000	0.000000	0.000000	0.000000	0.000000	0.000000	0.000000	0.000000	0.000000	0.000000	0.000000	0.000000	0.000000
0.926667	1.141754	-1.141754	0.000000	0.000000	0.000000	0.000000	10.275789	-2.283509	0.000000	2.283509	0.000000	-2.283509	0.000000	0.000000	0.000000	0.000000	0.000000	0.000000	0.000000	0.000000	0.000000	0.000000	0.000000	0.000000	0.000000	0.000000	0.000000	0.000000	0.000000	0.000000	0.000000	0.000000	0.000000	0.000000	0.000000
0.933333	1.039558	-1.039558	0.000000	0.000000	0.000000	0.000000	9.356026	-2.079117	0.000000	2.079117	0.000000	-2.079117	0.000000	0.000000	0.000000	0.000000	0.000000	0.000000	0.000000	0.000000	0.000000	0.000000	0.000000	0.000000	0.000000	0.000000	0.000000	0.000000	0.000000	0.000000	0.000000	0.000000	0.000000	0.000000	0.000000
0.940000	0.936907	-0.936907	0.000000	0.000000	0.000000	0.000000	8.432159	-1.873813	0.000000	1.873813	0.000000	-1.873813	0.000000	0.000000	0.000000	0.000000	0.000000	0.000000	0.000000	0.000000	0.000000	0.000000	0.000000	0.000000	0.000000	0.000000	0.000000	0.000000	0.000000	0.000000	0.000000	0.000000	0.000000	0.000000	0.000000
0.946667	0.833844	-0.833844	0.000000	0.000000	0.000000	0.000000	7.504594	-1.667687	0.000000	1.667687	0.000000	-1.667687	0.000000	0.000000	0.000000	0.000000	0.000000	0.000000	0.000000	0.000000	0.000000	0.000000	0.000000	0.000000	0.000000	0.000000	0.000000	0.000000	0.000000	0.000000	0.000000	0.000000	0.000000	0.000000	0.000000
